#!OML:ASF X:\für Bonn\!DataBase\2005_08_12_Daniel\c3d\Daniel.ASF
:FULLY-SPECIFIED
:DEGREES
46
root 2.8744 17.0766 -21.4242 170.083 182.502 -182.382
lowerback 21.5286 1.02839 1.03907
upperback 8.49583 1.417 -2.35067
thorax -2.68707 0.755997 -3.43424
lowerneck 5.40331 1.4797 -3.79661
upperneck 22.6921 2.11357 -0.283528
head 5.9753 0.697094 0.623543
rclavicle -1.66979e-014 8.74653e-015
rhumerus -11.9895 -21.8322 -84.3953
rradius 14.2956
rwrist 35.0133
rhand -21.628 17.0806
rfingers 7.12502
rthumb 4.76797 -12.8458
lclavicle -1.66979e-014 8.74653e-015
lhumerus -29.9194 31.6251 76.2588
lradius 23.2767
lwrist -27.3233
lhand -9.7099 -7.0607
lfingers 7.12502
lthumb 16.263 22.2773
rfemur 9.8288 -3.44416 16.6759
rtibia 48.9163
rfoot -7.02343 6.41188
rtoes -13.5511
lfemur -23.2015 -5.30106 -16.1833
ltibia 38.9644
lfoot -5.74558 4.27456
ltoes -5.40992
47
root 2.90282 17.0971 -21.3352 170.041 182.523 -182.145
lowerback 22.06 1.07383 0.755615
upperback 8.68487 1.41422 -2.42176
thorax -2.75434 0.751118 -3.36106
lowerneck 5.40493 1.49073 -3.90559
upperneck 22.5385 2.13007 -0.311931
head 5.92524 0.697313 0.632341
rclavicle 4.37326e-015 0
rhumerus -11.5746 -21.8875 -84.6393
rradius 14.092
rwrist 35.3216
rhand -21.7097 17.1755
rfingers 7.12502
rthumb 4.68908 -12.7526
lclavicle 4.37326e-015 0
lhumerus -29.513 30.3395 77.0635
lradius 24.1155
lwrist -26.0189
lhand -9.63586 -6.80806
lfingers 7.12502
lthumb 16.3343 22.524
rfemur 8.36511 -3.69632 16.0656
rtibia 50.9368
rfoot -6.97466 6.34963
rtoes -13.7108
lfemur -22.7371 -5.2574 -16.6055
ltibia 38.8854
lfoot -6.04905 4.29652
ltoes -5.53472
48
root 2.93035 17.1196 -21.2493 170.004 182.524 -181.931
lowerback 22.6032 1.12191 0.519861
upperback 8.86826 1.4215 -2.49517
thorax -2.8294 0.751994 -3.32073
lowerneck 5.39569 1.47834 -3.94934
upperneck 22.4196 2.11953 -0.359029
head 5.88927 0.688087 0.623679
rclavicle 2.26615e-014 -2.8625e-014
rhumerus -11.1578 -22.1511 -84.8825
rradius 13.897
rwrist 35.7226
rhand -21.7533 17.3133
rfingers 7.12502
rthumb 4.64698 -12.6157
lclavicle 2.26615e-014 -2.8625e-014
lhumerus -29.1672 29.0866 77.7962
lradius 25.0084
lwrist -24.8546
lhand -9.66021 -6.59527
lfingers 7.12502
lthumb 16.3108 22.7388
rfemur 6.89626 -3.96093 15.5158
rtibia 52.7478
rfoot -7.05934 6.31759
rtoes -13.6432
lfemur -22.2371 -5.27916 -16.9996
ltibia 38.708
lfoot -6.3384 4.36376
ltoes -5.7326
49
root 2.95693 17.1445 -21.1671 169.985 182.527 -181.726
lowerback 23.119 1.16867 0.298483
upperback 9.08935 1.42907 -2.55529
thorax -2.84759 0.753928 -3.27302
lowerneck 5.38205 1.47072 -4.05076
upperneck 22.1969 2.11289 -0.403525
head 5.82038 0.678531 0.625069
rclavicle -1.74931e-014 2.46493e-014
rhumerus -10.6343 -22.4009 -85.1479
rradius 13.7061
rwrist 36.0775
rhand -21.7177 17.3775
rfingers 7.12502
rthumb 4.68138 -12.5508
lclavicle -1.74931e-014 2.46493e-014
lhumerus -28.7832 27.9741 78.5259
lradius 25.9568
lwrist -23.7807
lhand -9.69914 -6.43121
lfingers 7.12502
lthumb 16.2734 22.9059
rfemur 5.42527 -4.26615 14.9989
rtibia 54.3428
rfoot -7.22254 6.37459
rtoes -13.5624
lfemur -21.74 -5.28695 -17.3833
ltibia 38.4761
lfoot -6.58738 4.44282
ltoes -5.8493
50
root 2.98251 17.169 -21.0896 169.968 182.522 -181.548
lowerback 23.6457 1.22088 0.129349
upperback 9.32468 1.45288 -2.61658
thorax -2.85095 0.765149 -3.26087
lowerneck 5.35021 1.43588 -4.11643
upperneck 21.985 2.06824 -0.433388
head 5.75868 0.654386 0.624195
rclavicle -2.38542e-015 0
rhumerus -10.0793 -22.6174 -85.4374
rradius 13.5461
rwrist 36.3497
rhand -21.6636 17.3647
rfingers 7.12502
rthumb 4.73365 -12.5624
lclavicle -2.38542e-015 0
lhumerus -28.3631 26.7104 79.2753
lradius 26.9437
lwrist -22.647
lhand -9.81012 -6.25561
lfingers 7.12502
lthumb 16.1665 23.0902
rfemur 3.95849 -4.55727 14.5709
rtibia 55.7224
rfoot -7.41057 6.47609
rtoes -13.0284
lfemur -21.2529 -5.36168 -17.7243
ltibia 38.216
lfoot -6.80534 4.53962
ltoes -5.9401
51
root 3.00631 17.1898 -21.0164 169.979 182.51 -181.4
lowerback 24.1582 1.27956 0.0483946
upperback 9.57244 1.50244 -2.69622
thorax -2.8267 0.791809 -3.32548
lowerneck 5.35039 1.37065 -4.13354
upperneck 21.718 1.97917 -0.458012
head 5.67518 0.614377 0.614913
rclavicle -2.3059e-014 3.33958e-014
rhumerus -9.47948 -22.9703 -85.7538
rradius 13.4021
rwrist 36.6048
rhand -21.5362 17.2911
rfingers 7.12502
rthumb 4.85664 -12.6333
lclavicle -2.3059e-014 3.33958e-014
lhumerus -27.9156 25.3001 80.0127
lradius 27.9854
lwrist -21.4487
lhand -9.98269 -6.16979
lfingers 7.12502
lthumb 16.0003 23.1895
rfemur 2.48915 -4.88184 14.2113
rtibia 56.9096
rfoot -7.65928 6.70515
rtoes -12.1568
lfemur -20.8304 -5.40556 -18.0293
ltibia 37.9831
lfoot -6.97696 4.63618
ltoes -5.97798
52
root 3.02899 17.2125 -20.9492 169.986 182.481 -181.274
lowerback 24.7139 1.32921 -0.0375878
upperback 9.82729 1.53894 -2.74967
thorax -2.81497 0.811255 -3.3574
lowerneck 5.33334 1.31387 -4.18109
upperneck 21.4529 1.89831 -0.458818
head 5.59471 0.577337 0.6188
rclavicle 0 1.59028e-015
rhumerus -8.84361 -23.3456 -86.0715
rradius 13.2667
rwrist 36.8789
rhand -21.4235 17.258
rfingers 7.12502
rthumb 4.96544 -12.6638
lclavicle 0 1.59028e-015
lhumerus -27.4837 23.8348 80.7411
lradius 29.0879
lwrist -20.1794
lhand -10.2121 -6.06826
lfingers 7.12502
lthumb 15.7794 23.3086
rfemur 1.0441 -5.20046 13.9209
rtibia 57.8992
rfoot -7.93761 7.001
rtoes -11.4984
lfemur -20.4493 -5.47282 -18.3046
ltibia 37.7775
lfoot -7.14616 4.71705
ltoes -5.90417
53
root 3.04901 17.2256 -20.8883 170.006 182.452 -181.163
lowerback 25.2937 1.37896 -0.131899
upperback 10.0758 1.57267 -2.78717
thorax -2.81996 0.828472 -3.36798
lowerneck 5.38203 1.24948 -4.19714
upperneck 21.1263 1.81255 -0.5223
head 5.48537 0.53804 0.596664
rclavicle 1.55052e-014 -6.36111e-015
rhumerus -8.1416 -23.8809 -86.3819
rradius 13.0794
rwrist 37.3416
rhand -21.2686 17.2173
rfingers 7.12502
rthumb 5.11502 -12.7009
lclavicle 1.55052e-014 -6.36111e-015
lhumerus -27.0759 22.413 81.4245
lradius 30.2301
lwrist -18.9229
lhand -10.4391 -6.0254
lfingers 7.12502
lthumb 15.5608 23.3686
rfemur -0.390243 -5.49106 13.6977
rtibia 58.7078
rfoot -8.26014 7.34643
rtoes -10.9731
lfemur -20.1547 -5.50727 -18.5497
ltibia 37.6337
lfoot -7.27596 4.75282
ltoes -5.83059
54
root 3.06742 17.2391 -20.8324 170.05 182.414 -181.07
lowerback 25.89 1.43883 -0.180005
upperback 10.3108 1.62793 -2.83536
thorax -2.84168 0.857519 -3.42402
lowerneck 5.46247 1.16244 -4.14415
upperneck 20.7843 1.69236 -0.571643
head 5.36683 0.488579 0.566394
rclavicle -1.98785e-015 2.38542e-014
rhumerus -7.4684 -24.33 -86.7233
rradius 12.9515
rwrist 37.6252
rhand -21.1437 17.1581
rfingers 7.12502
rthumb 5.23564 -12.7572
lclavicle -1.98785e-015 2.38542e-014
lhumerus -26.719 20.7061 82.0764
lradius 31.467
lwrist -17.458
lhand -10.7613 -5.94689
lfingers 7.12502
lthumb 15.2504 23.471
rfemur -1.7798 -5.75715 13.5408
rtibia 59.2826
rfoot -8.72351 7.7168
rtoes -11.251
lfemur -19.9368 -5.54157 -18.762
ltibia 37.525
lfoot -7.40955 4.78508
ltoes -5.68254
55
root 3.08363 17.251 -20.7814 170.108 182.349 -181.015
lowerback 26.4991 1.46901 -0.205149
upperback 10.5509 1.65122 -2.85719
thorax -2.8629 0.870811 -3.45668
lowerneck 5.55132 1.09363 -4.15595
upperneck 20.4216 1.59285 -0.605265
head 5.24005 0.44556 0.552641
rclavicle 6.36111e-015 9.54166e-015
rhumerus -6.71864 -24.9039 -87.058
rradius 12.7699
rwrist 38.1087
rhand -20.9849 17.1432
rfingers 7.12502
rthumb 5.38889 -12.7682
lclavicle 6.36111e-015 9.54166e-015
lhumerus -26.3666 19.1881 82.6932
lradius 32.7085
lwrist -16.1041
lhand -11.0812 -5.82764
lfingers 7.12502
lthumb 14.9423 23.6134
rfemur -3.08278 -6.02417 13.4669
rtibia 59.608
rfoot -9.27414 8.07951
rtoes -12.0339
lfemur -19.7821 -5.57567 -18.9268
ltibia 37.466
lfoot -7.5221 4.78383
ltoes -5.53547
56
root 3.09978 17.2605 -20.7347 170.19 182.281 -180.99
lowerback 27.1246 1.49004 -0.157915
upperback 10.7772 1.6794 -2.8818
thorax -2.9014 0.88834 -3.53669
lowerneck 5.69485 1.00796 -4.12505
upperneck 20.009 1.47217 -0.670776
head 5.08992 0.39482 0.520928
rclavicle -1.63003e-014 6.36111e-015
rhumerus -5.96038 -25.2775 -87.408
rradius 12.6129
rwrist 38.3283
rhand -20.8727 17.1168
rfingers 7.12502
rthumb 5.49722 -12.7919
lclavicle -1.63003e-014 6.36111e-015
lhumerus -26.0822 17.5981 83.2728
lradius 34.0117
lwrist -14.7212
lhand -11.5072 -5.71882
lfingers 7.12502
lthumb 14.5319 23.7522
rfemur -4.30075 -6.22123 13.461
rtibia 59.6818
rfoot -9.80529 8.44677
rtoes -12.7741
lfemur -19.6837 -5.62104 -19.0536
ltibia 37.4336
lfoot -7.64674 4.78245
ltoes -5.37345
57
root 3.11578 17.2724 -20.692 170.26 182.196 -181.026
lowerback 27.7961 1.47939 -0.0124317
upperback 11.0046 1.69191 -2.89911
thorax -2.95456 0.900693 -3.66291
lowerneck 5.90034 0.921746 -4.11804
upperneck 19.5613 1.3424 -0.708511
head 4.91908 0.340337 0.501652
rclavicle -1.74931e-014 -2.22639e-014
rhumerus -5.21551 -25.6123 -87.7599
rradius 12.5115
rwrist 38.5323
rhand -20.7844 17.0797
rfingers 7.12502
rthumb 5.58247 -12.8268
lclavicle -1.74931e-014 -2.22639e-014
lhumerus -25.8051 16.0762 83.8062
lradius 35.3038
lwrist -13.4076
lhand -11.8984 -5.64727
lfingers 7.12502
lthumb 14.1549 23.8505
rfemur -5.46781 -6.39166 13.5474
rtibia 59.5431
rfoot -10.2694 8.81763
rtoes -13.5995
lfemur -19.6053 -5.65297 -19.1143
ltibia 37.424
lfoot -7.75508 4.74246
ltoes -5.31668
58
root 3.13148 17.2848 -20.6526 170.39 182.11 -181.153
lowerback 28.437 1.44372 0.247176
upperback 11.2202 1.7059 -2.88581
thorax -3.0005 0.916361 -3.8211
lowerneck 6.116 0.833728 -4.12934
upperneck 19.0997 1.20947 -0.746275
head 4.74296 0.28345 0.485804
rclavicle -1.15295e-014 -1.03368e-014
rhumerus -4.38692 -26.1479 -88.1182
rradius 12.3387
rwrist 38.9594
rhand -20.7093 17.0526
rfingers 7.12502
rthumb 5.65502 -12.8519
lclavicle -1.15295e-014 -1.03368e-014
lhumerus -25.5808 14.562 84.3311
lradius 36.6897
lwrist -12.054
lhand -12.2704 -5.557
lfingers 7.12502
lthumb 13.7964 23.9655
rfemur -6.67185 -6.4907 13.7708
rtibia 59.229
rfoot -10.6346 9.1591
rtoes -14.2033
lfemur -19.6192 -5.67873 -19.0662
ltibia 37.4471
lfoot -7.85816 4.67866
ltoes -5.17088
